<?xml version="1.0" encoding="UTF-8" standalone="no"?>
<svg
   xmlns:dc="http://purl.org/dc/elements/1.1/"
   xmlns:cc="http://creativecommons.org/ns#"
   xmlns:rdf="http://www.w3.org/1999/02/22-rdf-syntax-ns#"
   xmlns:svg="http://www.w3.org/2000/svg"
   xmlns="http://www.w3.org/2000/svg"
   viewBox="0 0 1033.3467 278.66666"
   height="278.66666"
   width="1033.3467"
   xml:space="preserve"
   id="svg2"
   version="1.1"><metadata
     id="metadata8"><rdf:RDF><cc:Work
         rdf:about=""><dc:format>image/svg+xml</dc:format><dc:type
           rdf:resource="http://purl.org/dc/dcmitype/StillImage" /></cc:Work></rdf:RDF></metadata><defs
     id="defs6" /><g
     transform="matrix(1.3333333,0,0,-1.3333333,0,278.66667)"
     id="g10"><g
       transform="scale(0.1)"
       id="g12"><path
         id="path14"
         style="fill:#ffffff;fill-opacity:1;fill-rule:nonzero;stroke:none"
         d="M 6705,80 H 1045 C 512.047,80 80,512.039 80,1045 v 0 c 0,532.96 432.047,965 965,965 h 5660 c 532.96,0 965,-432.04 965,-965 v 0 C 7670,512.039 7237.96,80 6705,80" /><path
         id="path16"
         style="fill:none;stroke:#040606;stroke-width:160;stroke-linecap:butt;stroke-linejoin:miter;stroke-miterlimit:10;stroke-dasharray:none;stroke-opacity:1"
         d="M 6705,80 H 1045 C 512.047,80 80,512.039 80,1045 v 0 c 0,532.96 432.047,965 965,965 h 5660 c 532.96,0 965,-432.04 965,-965 v 0 C 7670,512.039 7237.96,80 6705,80 Z" /><path
         id="path18"
         style="fill:#040606;fill-opacity:1;fill-rule:nonzero;stroke:none"
         d="m 7750.08,1040 c 0,-574.379 -465.63,-1040 -1040,-1040 -574.38,0 -1040,465.621 -1040,1040 0,574.38 465.62,1040 1040,1040 574.37,0 1040,-465.62 1040,-1040" /><g
         transform="scale(10)"
         id="g20"><text
           id="text24"
           style="font-variant:normal;font-weight:bold;font-size:121.31600189px;font-family:Montserrat;-inkscape-font-specification:Montserrat-Bold;writing-mode:lr-tb;fill:#040606;fill-opacity:1;fill-rule:nonzero;stroke:none"
           transform="matrix(1,0,0,-1,75.0309,70.3059)"><tspan
             id="tspan22"
             y="0"
             x="0 81.766098 159.89261 248.81641 338.22607 380.32178">Syunik</tspan></text>
</g><g
         transform="scale(10)"
         id="g26"><text
           id="text30"
           style="font-variant:normal;font-weight:bold;font-size:105.22000122px;font-family:Montserrat;-inkscape-font-specification:Montserrat-Bold;writing-mode:lr-tb;fill:#ffffff;fill-opacity:1;fill-rule:nonzero;stroke:none"
           transform="matrix(1,0,0,-1,638.022,70.0238)"><tspan
             id="tspan28"
             y="0"
             x="0">$</tspan></text>
</g></g></g></svg>