<svg width="390" height="80" viewBox="0 0 390 80" fill="none" xmlns="http://www.w3.org/2000/svg">
<path d="M140.373 66.3102C141.046 66.3102 141.662 66.4745 142.221 66.803C142.796 67.1316 143.248 67.5833 143.576 68.1582C143.905 68.7167 144.069 69.3327 144.069 70.0062V79.1477H139.19V71.2629C139.19 70.8522 139.059 70.5073 138.796 70.228C138.55 69.9323 138.246 69.7845 137.884 69.7845C137.523 69.7845 137.211 69.9323 136.948 70.228C136.702 70.5073 136.578 70.8522 136.578 71.2629V79.1477H131.7V66.5566H135.371L135.864 68.38C136.767 67.0002 138.04 66.3102 139.683 66.3102H140.373Z" fill="#181524"/>
<path d="M156.78 66.3102C158.685 66.3102 160.139 66.6798 161.141 67.419C162.159 68.1582 162.669 69.1192 162.669 70.3019V75.501C162.669 75.8131 162.743 76.043 162.89 76.1909C163.038 76.3387 163.219 76.4126 163.432 76.4126C163.745 76.4126 164.032 76.3387 164.295 76.1909V78.8274C163.769 79.2052 162.94 79.3941 161.806 79.3941C160.755 79.3941 159.925 79.2216 159.318 78.8766C158.71 78.5153 158.332 78.0225 158.184 77.3982C157.659 78.006 157.075 78.4906 156.435 78.852C155.811 79.2134 155.038 79.3941 154.119 79.3941C152.804 79.3941 151.737 79.1395 150.915 78.6302C150.094 78.121 149.683 77.119 149.683 75.6242C149.683 74.4907 150.004 73.6201 150.644 73.0123C151.285 72.3881 152.197 71.961 153.379 71.731C154.579 71.4846 156.098 71.3614 157.938 71.3614V70.6469C157.938 70.1869 157.782 69.8255 157.47 69.5627C157.174 69.2999 156.796 69.1685 156.336 69.1685C155.958 69.1685 155.597 69.2835 155.252 69.5134C154.923 69.727 154.759 69.998 154.759 70.3266V70.4251H150.078C150.061 70.3758 150.053 70.2609 150.053 70.0802C150.053 69.3738 150.291 68.7414 150.768 68.1829C151.26 67.6079 151.95 67.1562 152.837 66.8277C153.741 66.4827 154.784 66.3102 155.967 66.3102H156.78ZM157.938 73.6037C156.854 73.6037 156.057 73.7515 155.548 74.0472C155.038 74.3265 154.784 74.7207 154.784 75.2299C154.784 76.0184 155.277 76.4126 156.262 76.4126C156.722 76.4126 157.116 76.2566 157.445 75.9445C157.774 75.6159 157.938 75.1971 157.938 74.6878V73.6037Z" fill="#181524"/>
<path d="M174.38 64.9304H169.526V61.4069H174.38V64.9304ZM174.38 79.1477H169.526V66.5813H174.38V79.1477Z" fill="#181524"/>
<path d="M185.57 61.4069V79.1477H180.691V61.4069H185.57Z" fill="#181524"/>
<path d="M198.163 66.3102C198.951 66.3102 199.756 66.4417 200.577 66.7045C201.415 66.9509 202.113 67.3287 202.672 67.8379C203.23 68.3471 203.509 68.9631 203.509 69.6859C203.509 69.8338 203.501 69.9734 203.485 70.1048C203.468 70.2198 203.46 70.2937 203.46 70.3266H199.419C199.419 69.9323 199.239 69.6531 198.877 69.4888C198.532 69.3081 198.138 69.2178 197.694 69.2178C196.479 69.2178 195.871 69.4559 195.871 69.9323C195.871 70.228 196.052 70.4333 196.413 70.5483C196.791 70.6469 197.407 70.7454 198.261 70.844C199.378 70.9754 200.298 71.1397 201.021 71.3368C201.76 71.5339 202.401 71.9199 202.943 72.4949C203.501 73.0534 203.78 73.8747 203.78 74.9589C203.78 76.503 203.214 77.6282 202.08 78.3346C200.963 79.0409 199.583 79.3941 197.941 79.3941H196.66C195.74 79.3941 194.861 79.2545 194.023 78.9752C193.202 78.6795 192.528 78.236 192.003 77.6446C191.477 77.0533 191.214 76.3305 191.214 75.4763V75.2546C191.214 75.156 191.222 75.0821 191.239 75.0328H195.23V75.1314C195.23 75.6077 195.444 75.9445 195.871 76.1416C196.298 76.3223 196.791 76.4126 197.349 76.4126C197.842 76.4126 198.31 76.3634 198.754 76.2648C199.214 76.1662 199.444 75.9609 199.444 75.6488C199.444 75.3367 199.255 75.1231 198.877 75.0082C198.499 74.8767 197.875 74.7453 197.005 74.6139C195.953 74.4825 195.058 74.31 194.319 74.0965C193.58 73.8829 192.939 73.4969 192.397 72.9384C191.871 72.3635 191.608 71.5668 191.608 70.5483C191.608 69.5956 191.896 68.8071 192.471 68.1829C193.062 67.5422 193.801 67.0741 194.688 66.7784C195.575 66.4663 196.479 66.3102 197.399 66.3102H198.163Z" fill="#181524"/>
<path d="M220.69 66.3102C222.595 66.3102 224.049 66.6798 225.051 67.419C226.069 68.1582 226.579 69.1192 226.579 70.3019V75.501C226.579 75.8131 226.653 76.043 226.8 76.1909C226.948 76.3387 227.129 76.4126 227.343 76.4126C227.655 76.4126 227.942 76.3387 228.205 76.1909V78.8274C227.679 79.2052 226.85 79.3941 225.716 79.3941C224.665 79.3941 223.835 79.2216 223.228 78.8766C222.62 78.5153 222.242 78.0225 222.094 77.3982C221.569 78.006 220.985 78.4906 220.345 78.852C219.721 79.2134 218.948 79.3941 218.029 79.3941C216.714 79.3941 215.647 79.1395 214.825 78.6302C214.004 78.121 213.593 77.119 213.593 75.6242C213.593 74.4907 213.914 73.6201 214.554 73.0123C215.195 72.3881 216.107 71.961 217.289 71.731C218.489 71.4846 220.008 71.3614 221.848 71.3614V70.6469C221.848 70.1869 221.692 69.8255 221.38 69.5627C221.084 69.2999 220.706 69.1685 220.246 69.1685C219.868 69.1685 219.507 69.2835 219.162 69.5134C218.833 69.727 218.669 69.998 218.669 70.3266V70.4251H213.988C213.971 70.3758 213.963 70.2609 213.963 70.0802C213.963 69.3738 214.201 68.7414 214.678 68.1829C215.17 67.6079 215.86 67.1562 216.747 66.8277C217.651 66.4827 218.694 66.3102 219.877 66.3102H220.69ZM221.848 73.6037C220.764 73.6037 219.967 73.7515 219.458 74.0472C218.948 74.3265 218.694 74.7207 218.694 75.2299C218.694 76.0184 219.187 76.4126 220.172 76.4126C220.632 76.4126 221.026 76.2566 221.355 75.9445C221.684 75.6159 221.848 75.1971 221.848 74.6878V73.6037Z" fill="#181524"/>
<path d="M240.951 66.3102C242.035 66.3102 242.873 66.6141 243.464 67.2219C244.072 67.8133 244.376 68.6346 244.376 69.6859V70.1048L244.327 71.0411L244.277 71.6571H240.286V71.0658C240.286 70.7208 240.179 70.4333 239.965 70.2034C239.768 69.957 239.53 69.8338 239.251 69.8338C238.955 69.8338 238.701 69.957 238.487 70.2034C238.29 70.4333 238.191 70.7208 238.191 71.0658V79.1477H233.436V66.5566H237.083L237.625 68.38C237.723 68.1829 237.912 67.9201 238.191 67.5915C238.471 67.263 238.848 66.9673 239.325 66.7045C239.801 66.4417 240.343 66.3102 240.951 66.3102V66.3102Z" fill="#181524"/>
<path d="M255.344 66.5566H258.3V70.0555H255.344V74.7125C255.344 75.3695 255.467 75.8213 255.713 76.0677C255.976 76.2976 256.321 76.4126 256.748 76.4126C256.945 76.4126 257.2 76.388 257.512 76.3387C257.84 76.273 258.095 76.1991 258.276 76.117V78.8766C257.898 79.0409 257.372 79.1723 256.699 79.2709C256.025 79.3694 255.45 79.4187 254.974 79.4187C253.528 79.4187 252.411 79.1559 251.623 78.6302C250.851 78.1046 250.465 77.2093 250.465 75.9445V70.0555H249.085V66.5566H250.662L252.362 62.5403H255.344V66.5566Z" fill="#181524"/>
<path d="M0.330719 1.69009V41.0525H5.32033V10.6159L14.1353 26.3609L16.7964 21.8148L5.59752 1.69009H0.330719ZM34.1491 1.69009L19.8456 27.2479L17.2399 31.794L18.4596 33.9562H21.287L34.3709 10.6159V41.0525H39.3605V1.69009H34.1491Z" fill="#181524"/>
<path d="M51.8063 41.0525H56.685V12.1128H51.8063V41.0525ZM51.8063 6.67967H56.685V0.581268H51.8063V6.67967Z" fill="#1D1A2D"/>
<path d="M83.7349 16.3817V11.9465C83.5132 11.9465 83.2914 11.8911 83.0696 11.8911H82.1271C80.2422 12.0574 78.5235 12.7781 76.9158 13.9978C75.2526 15.2175 73.9775 16.8252 72.9795 18.8211V12.1128H68.4335V41.0525H73.3122V23.2008C74.0884 21.0941 75.3635 19.4863 77.2484 18.2667C79.1334 17.1024 81.2956 16.4926 83.7349 16.3817V16.3817Z" fill="#231E35"/>
<path d="M99.8527 41.6069C102.07 41.6069 104.177 41.1633 106.173 40.2763C108.169 39.3893 109.776 38.0587 111.107 36.2846L111.218 38.3359C111.329 39.1675 111.661 39.8882 112.216 40.4426C112.77 40.997 113.546 41.2742 114.544 41.2742C114.877 41.2742 115.265 41.2742 115.598 41.2188C115.93 41.2188 116.318 41.1633 116.873 41.0525V36.839C115.819 36.839 115.32 36.2292 115.32 35.0649V23.2562C115.32 19.5972 114.212 16.7143 112.105 14.663C109.998 12.6672 107.004 11.6138 103.235 11.6138C99.4647 11.6138 95.6947 12.889 91.9803 15.3838L93.588 18.5438C96.8035 16.3262 99.8527 15.162 102.791 15.162C105.23 15.162 107.115 15.8827 108.446 17.2133C109.776 18.5438 110.442 20.4288 110.442 22.7573V25.0857C109.333 24.6422 108.058 24.3096 106.616 24.0324C105.175 23.8106 103.734 23.6443 102.348 23.6443C100.573 23.6443 98.9103 23.8661 97.4134 24.3096C95.9165 24.7531 94.6414 25.3629 93.5326 26.1391C92.4238 26.9153 91.5922 27.8577 91.0378 28.9665C90.4279 30.0753 90.1507 31.2396 90.1507 32.5701C90.1507 33.9007 90.3725 35.0649 90.8714 36.1737C91.3704 37.2825 92.0357 38.225 92.9227 39.0012C93.8098 39.8328 94.8077 40.4981 96.0274 40.9416C97.1916 41.3851 98.4667 41.6069 99.8527 41.6069V41.6069ZM101.128 37.9478C100.241 37.9478 99.4092 37.837 98.633 37.5043C97.8569 37.2271 97.1362 36.839 96.5818 36.2846C96.0274 35.7857 95.5838 35.1758 95.2512 34.4551C94.9186 33.7898 94.8077 33.0137 94.8077 32.1821C94.8077 30.5189 95.5284 29.1883 97.0807 28.1349C98.633 27.137 100.629 26.5826 103.068 26.5826C105.618 26.5826 108.058 27.0816 110.442 27.9686V32.2375C110.442 33.0137 110.054 33.7344 109.388 34.3997C108.612 35.5085 107.448 36.3401 105.951 37.0053C104.454 37.6706 102.846 37.9478 101.128 37.9478Z" fill="#28233E"/>
<path d="M152.14 41.0525V23.7552C152.14 22.0365 151.974 20.4288 151.696 18.9319C151.419 17.4905 150.976 16.2153 150.31 15.1065C149.645 13.9977 148.758 13.1661 147.649 12.5563C146.541 11.9465 145.155 11.6138 143.491 11.6138C140.941 11.6138 138.557 12.2237 136.395 13.4434C134.233 14.663 132.57 16.3262 131.461 18.3221V12.1128H127.026V41.0525H131.904V23.5889C132.237 22.4801 132.736 21.4821 133.401 20.5397C134.067 19.6526 134.843 18.821 135.73 18.1557C136.617 17.4905 137.559 16.9915 138.557 16.6034C139.555 16.2153 140.553 15.9936 141.551 15.9936C143.436 15.9936 144.877 16.7143 145.82 18.1003C146.762 19.5417 147.261 21.7593 147.261 24.864V41.0525H152.14Z" fill="#2D2847"/>
<path d="M175.496 41.6069C177.603 41.6069 179.599 41.1079 181.484 40.0545C183.369 39.0012 184.921 37.5043 186.085 35.6193V38.0587C186.085 38.9457 186.418 39.6665 187.139 40.3317C187.859 40.997 188.691 41.2742 189.689 41.2742C189.966 41.2742 190.243 41.2742 190.576 41.2188C190.908 41.2188 191.297 41.1633 191.851 41.0525V36.839C190.798 36.839 190.299 36.2292 190.299 35.0649V0.581268H185.42V17.8785C184.311 16.1599 182.87 14.663 181.04 13.4433C179.211 12.2237 177.159 11.6138 174.831 11.6138C172.89 11.6138 171.116 12.0573 169.509 12.8335C167.901 13.6097 166.515 14.7185 165.351 16.049C164.186 17.435 163.299 19.0428 162.634 20.8723C161.969 22.7018 161.692 24.6422 161.692 26.6381C161.692 28.6339 162.024 30.5743 162.69 32.3484C163.355 34.1779 164.353 35.7857 165.572 37.1162C166.792 38.5022 168.234 39.611 169.952 40.3872C171.615 41.2188 173.5 41.6069 175.496 41.6069V41.6069ZM176.66 37.3934C175.219 37.3934 173.944 37.1162 172.724 36.5618C171.505 36.0074 170.507 35.2313 169.62 34.2333C168.732 33.2909 168.012 32.1821 167.513 30.8515C166.958 29.5209 166.737 28.1349 166.737 26.6935C166.737 25.3629 166.958 24.0324 167.402 22.7018C167.845 21.3713 168.455 20.207 169.287 19.2091C170.118 18.2112 171.116 17.3796 172.281 16.7697C173.445 16.1599 174.775 15.8273 176.217 15.8273C177.104 15.8273 178.046 16.049 178.989 16.3817C179.931 16.7143 180.818 17.2133 181.65 17.8231C182.482 18.4329 183.258 19.1537 183.923 19.9853C184.588 20.8169 185.087 21.7039 185.42 22.5909V30.9069C185.198 31.794 184.81 32.681 184.2 33.4572C183.59 34.2333 182.87 34.9541 182.038 35.5085C181.207 36.1183 180.319 36.5618 179.377 36.8945C178.434 37.2271 177.547 37.3934 176.66 37.3934V37.3934Z" fill="#322C50"/>
<path d="M209.722 41.6069C211.94 41.6069 214.046 41.1633 216.042 40.2763C218.038 39.3893 219.646 38.0587 220.976 36.2846L221.087 38.3359C221.198 39.1675 221.531 39.8882 222.085 40.4426C222.64 40.997 223.416 41.2742 224.414 41.2742C224.746 41.2742 225.134 41.2742 225.467 41.2188C225.8 41.2188 226.188 41.1633 226.742 41.0525V36.839C225.689 36.839 225.19 36.2292 225.19 35.0649V23.2562C225.19 19.5972 224.081 16.7143 221.974 14.663C219.868 12.6672 216.874 11.6138 213.104 11.6138C209.334 11.6138 205.564 12.889 201.85 15.3838L203.457 18.5438C206.673 16.3262 209.722 15.162 212.66 15.162C215.1 15.162 216.985 15.8827 218.315 17.2133C219.646 18.5438 220.311 20.4288 220.311 22.7573V25.0857C219.202 24.6422 217.927 24.3096 216.486 24.0324C215.044 23.8106 213.603 23.6443 212.217 23.6443C210.443 23.6443 208.78 23.8661 207.283 24.3096C205.786 24.7531 204.511 25.3629 203.402 26.1391C202.293 26.9153 201.462 27.8577 200.907 28.9665C200.297 30.0753 200.02 31.2396 200.02 32.5701C200.02 33.9007 200.242 35.0649 200.741 36.1737C201.24 37.2825 201.905 38.225 202.792 39.0012C203.679 39.8328 204.677 40.4981 205.897 40.9416C207.061 41.3851 208.336 41.6069 209.722 41.6069V41.6069ZM210.997 37.9478C210.11 37.9478 209.279 37.837 208.502 37.5043C207.726 37.2271 207.006 36.839 206.451 36.2846C205.897 35.7857 205.453 35.1758 205.121 34.4551C204.788 33.7898 204.677 33.0137 204.677 32.1821C204.677 30.5189 205.398 29.1883 206.95 28.1349C208.502 27.137 210.498 26.5826 212.938 26.5826C215.488 26.5826 217.927 27.0816 220.311 27.9686V32.2375C220.311 33.0137 219.923 33.7344 219.258 34.3997C218.482 35.5085 217.317 36.3401 215.82 37.0053C214.324 37.6706 212.716 37.9478 210.997 37.9478V37.9478Z" fill="#383158"/>
<path d="M251.748 41.0525H256.737V18.9319L251.748 12.4455V41.0525ZM280.022 1.74553V32.3484L255.629 1.69009H251.748V4.68385L256.737 11.004L280.798 41.0525H285.012V1.74553H280.022Z" fill="#3D3561"/>
<path d="M304.589 41.6069C306.806 41.6069 308.913 41.1633 310.909 40.2763C312.905 39.3893 314.512 38.0587 315.843 36.2846L315.954 38.3359C316.065 39.1675 316.397 39.8882 316.952 40.4426C317.506 40.997 318.282 41.2742 319.28 41.2742C319.613 41.2742 320.001 41.2742 320.333 41.2188C320.666 41.2188 321.054 41.1633 321.609 41.0525V36.839C320.555 36.839 320.056 36.2292 320.056 35.0649V23.2562C320.056 19.5972 318.947 16.7143 316.841 14.663C314.734 12.6672 311.74 11.6138 307.97 11.6138C304.2 11.6138 300.431 12.889 296.716 15.3838L298.324 18.5438C301.539 16.3262 304.588 15.162 307.527 15.162C309.966 15.162 311.851 15.8827 313.182 17.2133C314.512 18.5438 315.178 20.4288 315.178 22.7573V25.0857C314.069 24.6422 312.794 24.3096 311.352 24.0324C309.911 23.8106 308.469 23.6443 307.083 23.6443C305.309 23.6443 303.646 23.8661 302.149 24.3096C300.652 24.7531 299.377 25.3629 298.268 26.1391C297.16 26.9153 296.328 27.8577 295.774 28.9665C295.164 30.0753 294.886 31.2396 294.886 32.5701C294.886 33.9007 295.108 35.0649 295.607 36.1737C296.106 37.2825 296.771 38.225 297.659 39.0012C298.546 39.8328 299.543 40.4981 300.763 40.9416C301.927 41.3851 303.203 41.6069 304.589 41.6069V41.6069ZM305.864 37.9478C304.977 37.9478 304.145 37.837 303.369 37.5043C302.593 37.2271 301.872 36.839 301.318 36.2846C300.763 35.7857 300.32 35.1758 299.987 34.4551C299.654 33.7898 299.543 33.0137 299.543 32.1821C299.543 30.5189 300.264 29.1883 301.816 28.1349C303.369 27.137 305.365 26.5826 307.804 26.5826C310.354 26.5826 312.794 27.0816 315.178 27.9686V32.2375C315.178 33.0137 314.789 33.7344 314.124 34.3997C313.348 35.5085 312.184 36.3401 310.687 37.0053C309.19 37.6706 307.582 37.9478 305.864 37.9478V37.9478Z" fill="#423A6A"/>
<path d="M331.761 41.0525H336.64V12.1128H331.761V41.0525ZM331.761 6.67967H336.64V0.581268H331.761V6.67967Z" fill="#473F73"/>
<path d="M348.5 0.581268V35.3422C348.5 37.2826 348.998 38.7794 350.107 39.8328C351.216 40.9416 352.713 41.4406 354.598 41.4406C355.43 41.4406 356.427 41.3297 357.536 41.1079C358.645 40.8862 359.588 40.609 360.419 40.2763L359.643 36.3401C359.144 36.5618 358.645 36.7282 358.091 36.839C357.536 36.9499 357.037 37.0054 356.649 37.0054C355.596 37.0054 354.764 36.7282 354.21 36.1183C353.655 35.5085 353.378 34.6769 353.378 33.5681V0.581268H348.5Z" fill="#4D437B"/>
<path d="M378.193 41.6069C381.686 41.6069 384.458 40.8307 386.565 39.2229C388.616 37.6706 389.669 35.5085 389.669 32.7919C389.669 31.5722 389.392 30.5743 388.949 29.6873C388.505 28.8557 387.784 28.1349 386.842 27.4697C385.899 26.8598 384.735 26.3054 383.294 25.8619C381.852 25.4184 380.189 24.9194 378.304 24.4759C377.084 24.1987 376.031 23.9215 375.144 23.6443C374.257 23.4225 373.592 23.0899 373.037 22.7573C372.483 22.4246 372.039 22.0365 371.818 21.593C371.596 21.1495 371.485 20.5951 371.485 19.9298C371.485 18.2666 372.095 17.1024 373.315 16.3262C374.534 15.5501 376.086 15.162 377.861 15.162C379.413 15.162 380.965 15.4392 382.518 15.9936C384.014 16.548 385.4 17.3241 386.62 18.3775L388.838 15.4392C387.507 14.3304 385.955 13.3879 384.07 12.6672C382.185 12.0019 380.134 11.6138 377.971 11.6138C376.419 11.6138 374.922 11.8356 373.592 12.2237C372.261 12.6118 371.097 13.1661 370.099 13.9423C369.101 14.7185 368.269 15.6609 367.715 16.7697C367.161 17.8785 366.883 19.1537 366.883 20.5951C366.883 21.7593 367.05 22.7018 367.438 23.478C367.77 24.2541 368.38 24.9194 369.212 25.4738C369.988 26.0282 371.041 26.5272 372.317 26.9153C373.536 27.3588 375.033 27.7469 376.807 28.1904C378.138 28.523 379.357 28.8557 380.411 29.1329C381.409 29.4655 382.296 29.7981 382.961 30.1308C383.626 30.5189 384.125 30.9624 384.458 31.4613C384.791 31.9603 384.957 32.5701 384.957 33.2354C384.957 34.7877 384.292 35.952 383.072 36.7836C381.852 37.6152 380.189 38.0033 378.082 38.0033C376.197 38.0033 374.368 37.7261 372.705 37.0608C370.986 36.3955 369.267 35.453 367.604 34.1225L365.497 37.3934C367.105 38.7794 369.046 39.8328 371.319 40.5535C373.536 41.2742 375.865 41.6069 378.193 41.6069V41.6069Z" fill="#524884"/>
</svg>
