<svg xmlns="http://www.w3.org/2000/svg" xml:space="preserve" width="1033.347" height="278.667"><path d="M6705 80H1045C512.047 80 80 512.039 80 1045c0 532.96 432.047 965 965 965h5660c532.96 0 965-432.04 965-965 0-532.961-432.04-965-965-965" style="fill:#fff;fill-opacity:1;fill-rule:nonzero;stroke:none" transform="matrix(.13333 0 0 -.13333 0 278.667)"/><path d="M6705 80H1045C512.047 80 80 512.039 80 1045c0 532.96 432.047 965 965 965h5660c532.96 0 965-432.04 965-965 0-532.961-432.04-965-965-965Z" style="fill:none;stroke:#040606;stroke-width:160;stroke-linecap:butt;stroke-linejoin:miter;stroke-miterlimit:10;stroke-dasharray:none;stroke-opacity:1" transform="matrix(.13333 0 0 -.13333 0 278.667)"/><path d="M7750.08 1040c0-574.379-465.63-1040-1040-1040-574.38 0-1040 465.621-1040 1040 0 574.38 465.62 1040 1040 1040 574.37 0 1040-465.62 1040-1040" style="fill:#040606;fill-opacity:1;fill-rule:nonzero;stroke:none" transform="matrix(.13333 0 0 -.13333 0 278.667)"/><text style="font-variant:normal;font-weight:700;font-size:121.31600189px;font-family:Montserrat;-inkscape-font-specification:Montserrat-Bold;writing-mode:lr-tb;fill:#040606;fill-opacity:1;fill-rule:nonzero;stroke:none" transform="matrix(1.33333 0 0 1.33333 100.041 184.925)"><tspan x="0 81.766098 159.89261 248.81641 338.22607 380.32178" y="0">Syunik</tspan></text><text style="font-variant:normal;font-weight:700;font-size:105.22000122px;font-family:Montserrat;-inkscape-font-specification:Montserrat-Bold;writing-mode:lr-tb;fill:#fff;fill-opacity:1;fill-rule:nonzero;stroke:none" transform="matrix(1.33333 0 0 1.33333 850.696 185.302)"><tspan x="0" y="0">$</tspan></text></svg>